<svg width="199" height="58" viewBox="0 0 199 58" fill="none" xmlns="http://www.w3.org/2000/svg">
<path d="M52.5579 0.393509H1.00928V56.6366H52.5579V0.393509Z" stroke="#1C1C1B" stroke-width="0.1039" stroke-miterlimit="10"/>
<path d="M6.84748 43.1852H9.28498V43.6968H7.41923V44.5995H9.13451V45.081H7.41923V46.0741H9.28498V46.5856H6.81738V43.1551H6.84748V43.1852Z" fill="#575756"/>
<path d="M10.4585 43.1852H11.0303V45.1412C11.0303 45.6227 11.0904 46.1343 11.8428 46.1343C12.5951 46.1343 12.6553 45.6227 12.6553 45.1412V43.1852H13.2872V45.3218C13.2872 46.1643 12.7154 46.6157 11.9029 46.6157C11.0603 46.6157 10.5187 46.1944 10.5187 45.3218V43.1852H10.4585Z" fill="#575756"/>
<path d="M14.6411 43.1852H16.2661C17.0184 43.1852 17.3494 43.5162 17.3494 44.088C17.3494 44.75 16.9282 44.9005 16.7777 44.9305C16.9582 44.9907 17.2893 45.1111 17.2893 45.6528C17.2893 46.044 17.3494 46.4051 17.4698 46.5555H16.8379C16.7476 46.4051 16.7476 46.2245 16.7476 46.0741C16.7476 45.4421 16.5971 45.1713 16.0856 45.1713H15.243V46.5555H14.6712V43.1852H14.6411ZM15.2129 44.7199H16.1758C16.567 44.7199 16.7476 44.5393 16.7476 44.2083C16.7476 43.787 16.4768 43.6967 16.1758 43.6967H15.2129V44.7199Z" fill="#575756"/>
<path d="M21.7129 44.8403C21.7129 45.8032 21.0809 46.5856 20.0879 46.5856C19.0948 46.5856 18.4629 45.7731 18.4629 44.8403C18.4629 43.8773 19.0948 43.0949 20.0879 43.0949C21.111 43.0949 21.7129 43.9074 21.7129 44.8403ZM19.0647 44.8403C19.0647 45.5023 19.3356 46.1342 20.118 46.1342C20.8402 46.1342 21.1712 45.5023 21.1712 44.8403C21.1712 44.1782 20.9004 43.5463 20.118 43.5463C19.3958 43.5764 19.0647 44.1782 19.0647 44.8403Z" fill="#575756"/>
<path d="M22.9468 43.1852H24.4213C25.3843 43.1852 25.5648 43.8171 25.5648 44.2384C25.5648 44.6597 25.3843 45.2917 24.4213 45.2917H23.5185V46.5856H22.9468V43.1852ZM23.5787 44.75H24.4213C24.6921 44.75 24.9931 44.5995 24.9931 44.1782C24.9931 43.7569 24.7222 43.6065 24.4213 43.6065H23.5787V44.75Z" fill="#575756"/>
<path d="M26.7986 43.1852H29.2361V43.6968H27.3704V44.5995H29.0857V45.081H27.3704V46.0741H29.2361V46.5856H26.7686V43.1551H26.7986V43.1852Z" fill="#575756"/>
<path d="M31.4027 43.1852H32.0346L33.3286 46.5555H32.6967L32.3656 45.6528H31.0416L30.7106 46.5555H30.0786L31.4027 43.1852ZM31.192 45.1713H32.2453L31.7337 43.6967L31.192 45.1713Z" fill="#575756"/>
<path d="M36.8193 43.1852H38.2036C39.2568 43.1852 39.6781 43.9375 39.6781 44.8403C39.6781 45.8032 39.2568 46.5555 38.2036 46.5555H36.8193V43.1852ZM37.4513 46.044H38.023C38.9258 46.044 39.1666 45.5324 39.1666 44.8704C39.1666 44.2083 38.986 43.6967 38.023 43.6967H37.4513V46.044Z" fill="#575756"/>
<path d="M40.9725 43.1852H43.41V43.6968H41.5442V44.5995H43.2595V45.081H41.5442V46.0741H43.41V46.5856H40.9424V43.1551H40.9725V43.1852Z" fill="#575756"/>
<path d="M44.6736 43.1852H45.2454V46.044H46.9607V46.5555H44.6436V43.1852H44.6736Z" fill="#575756"/>
<path d="M7.74993 48.8426H8.47215L9.94669 52.4537H9.22446L8.83326 51.4907H7.32863L6.93743 52.4537H6.27539L7.74993 48.8426ZM7.56937 51.0394H8.71289L8.14113 49.4745L7.56937 51.0394Z" fill="#575756"/>
<path d="M11 48.8426H14.0995V49.4143H12.9259V52.5139H12.2639V49.4143H11.0903V48.8426H11Z" fill="#575756"/>
<path d="M16.0254 48.8426H16.6874V51.9421H18.6434V52.5139H16.0254V48.8426Z" fill="#575756"/>
<path d="M21.6228 48.8426H22.345L23.8196 52.4537H23.0973L22.7061 51.4907H21.1714L20.7802 52.4537H20.1182L21.6228 48.8426ZM21.3821 51.0393H22.5256L21.9538 49.4745L21.3821 51.0393ZM22.0441 47.8495H22.7663L22.014 48.5718H21.5927L22.0441 47.8495Z" fill="#575756"/>
<path d="M25.6553 48.8426H26.3775L28.1229 51.4907V48.8426H28.7548V52.4537H28.0326L26.3173 49.8056V52.4537H25.6854V48.8426H25.6553Z" fill="#575756"/>
<path d="M30.7104 48.8426H33.81V49.4143H32.6063V52.5139H31.9442V49.4143H30.7706V48.8426H30.7104Z" fill="#575756"/>
<path d="M35.7363 48.8426H36.3984V52.4537H35.7363V48.8426Z" fill="#575756"/>
<path d="M41.3335 49.9861C41.2432 49.5648 40.9423 49.2639 40.3705 49.2639C39.558 49.2639 39.227 49.9259 39.227 50.6481C39.227 51.3704 39.558 52.0324 40.3705 52.0324C40.9423 52.0324 41.2733 51.6111 41.3335 51.0694H41.9955C41.9353 51.912 41.2733 52.544 40.3705 52.544C39.227 52.544 38.5649 51.7014 38.5649 50.6481C38.5649 49.5949 39.227 48.7523 40.3705 48.7523C41.2131 48.7523 41.9052 49.2338 41.9955 49.9861H41.3335Z" fill="#575756"/>
<path d="M47.3216 50.6481C47.3216 51.7014 46.6595 52.544 45.516 52.544C44.3725 52.544 43.7104 51.7014 43.7104 50.6481C43.7104 49.5949 44.3725 48.7523 45.516 48.7523C46.6294 48.7523 47.3216 49.5949 47.3216 50.6481ZM44.3424 50.6481C44.3424 51.3704 44.6734 52.0324 45.4859 52.0324C46.2984 52.0324 46.6294 51.3704 46.6294 50.6481C46.6294 49.9259 46.2984 49.2639 45.4859 49.2639C44.6734 49.2639 44.3424 49.9259 44.3424 50.6481Z" fill="#575756"/>
<path d="M6.6665 3.88425H7.23826V5.84027C7.23826 6.32175 7.29845 6.83332 8.05076 6.83332C8.80308 6.83332 8.86326 6.32175 8.86326 5.84027V3.88425H9.49521V6.02082C9.49521 6.86342 8.92345 7.3148 8.11095 7.3148C7.29845 7.3148 6.72669 6.89351 6.72669 6.02082V3.88425H6.6665Z" fill="#575756"/>
<path d="M11.0298 3.88425H11.6617L13.1965 6.35184V3.88425H13.7682V7.25462H13.1363L11.6015 4.78702V7.25462H11.0298V3.88425Z" fill="#575756"/>
<path d="M15.3936 3.88425H15.9653V7.25462H15.3936V3.88425Z" fill="#575756"/>
<path d="M17.2593 3.88425H17.8611L18.7037 6.5324L19.5463 3.88425H20.1783L19.0648 7.28471H18.4028L17.2593 3.88425Z" fill="#575756"/>
<path d="M21.472 3.88425H23.9095V4.39582H22.0437V5.2986H23.759V5.78009H22.0437V6.77314H23.9095V7.28471H21.4419V3.85416H21.472V3.88425Z" fill="#575756"/>
<path d="M25.3843 3.88425H27.0093C27.7315 3.88425 28.0926 4.21527 28.0926 4.78702C28.0926 5.44906 27.6713 5.59953 27.5209 5.62962C27.7014 5.6898 28.0324 5.81017 28.0324 6.35184C28.0324 6.74304 28.0926 7.10415 28.213 7.25462H27.581C27.4908 7.10415 27.4908 6.9236 27.4908 6.77314C27.4908 6.14119 27.3403 5.87036 26.8287 5.87036H25.9861V7.25462H25.4144V3.88425H25.3843ZM25.956 5.41897H26.8889C27.2801 5.41897 27.4607 5.23841 27.4607 4.90739C27.4607 4.4861 27.1898 4.39582 26.8889 4.39582H25.9259V5.41897H25.956Z" fill="#575756"/>
<path d="M29.9883 6.14119C29.9883 6.65277 30.3795 6.86342 30.8309 6.86342C31.3424 6.86342 31.5531 6.62268 31.5531 6.35184C31.5531 6.1111 31.4026 5.96064 31.2822 5.93055C31.0415 5.84027 30.7707 5.78008 30.2892 5.65971C29.7174 5.50925 29.5369 5.14814 29.5369 4.81712C29.5369 4.15509 30.1688 3.82407 30.7707 3.82407C31.4929 3.82407 32.0647 4.21527 32.0647 4.9074H31.4929C31.4327 4.4861 31.1619 4.33564 30.7707 4.33564C30.4998 4.33564 30.1387 4.42592 30.1387 4.75693C30.1387 4.99767 30.2892 5.14814 30.5299 5.17823C30.5901 5.17823 31.3424 5.35879 31.4929 5.41897C31.9142 5.56944 32.1549 5.93054 32.1549 6.26156C32.1549 7.01388 31.4929 7.3148 30.8309 7.3148C30.0785 7.3148 29.4466 6.9236 29.4165 6.14119H30.0484H29.9883Z" fill="#575756"/>
<path d="M33.5996 3.88425H34.1714V7.25462H33.5996V3.88425Z" fill="#575756"/>
<path d="M35.8862 3.88425H37.2705C38.3237 3.88425 38.745 4.63656 38.745 5.53934C38.745 6.44212 38.3237 7.19443 37.2705 7.19443H35.8862V3.88425ZM36.458 6.74304H37.0297C37.9325 6.74304 38.1733 6.23147 38.1733 5.56943C38.1733 4.9074 37.9927 4.39582 37.0297 4.39582H36.458V6.74304Z" fill="#575756"/>
<path d="M41.1227 3.88425H41.7547L43.0486 7.25462H42.4167L42.0857 6.35184H40.7315L40.4005 7.25462H39.7686L41.1227 3.88425ZM40.9121 5.90045H41.9653L41.4537 4.4861L40.9121 5.90045Z" fill="#575756"/>
<path d="M44.2822 3.88425H45.6665C46.7197 3.88425 47.141 4.63656 47.141 5.53934C47.141 6.44212 46.7197 7.19443 45.6665 7.19443H44.2822V3.88425ZM44.854 6.74304H45.4257C46.3285 6.74304 46.5693 6.23147 46.5693 5.56943C46.5693 4.9074 46.3887 4.39582 45.4257 4.39582H44.854V6.74304Z" fill="#575756"/>
<path d="M8.98389 23.3241L9.64592 23.5949V23.0833L8.98389 23.3241Z" fill="#038DD2"/>
<path d="M8.71302 29.162H9.46533C9.52552 29.162 9.52552 29.162 9.52552 29.1018C9.52552 29.0417 9.5857 28.9514 9.5857 28.9213C9.5857 28.831 9.5857 28.7708 9.52552 28.7407C9.46533 28.6505 9.34496 28.5602 9.13431 28.5602C8.74311 28.5602 8.65283 28.8009 8.65283 28.9815C8.65283 29.0718 8.65283 29.1319 8.71302 29.162C8.65283 29.162 8.65283 29.162 8.71302 29.162Z" fill="#038DD2"/>
<path d="M7.23834 9.7523C6.84713 9.7523 6.51611 10.0833 6.51611 10.4745V40.1157C6.51611 40.5069 6.84713 40.8379 7.23834 40.8379H7.87028C7.87028 40.6875 8.05084 40.5972 8.29158 40.5972C8.6226 40.5972 9.34482 40.537 9.70593 40.5069C11.993 40.2662 12.986 38.7014 13.8888 36.625L25.1434 10.956C25.3842 10.3842 25.5647 9.99305 25.7152 9.7824H7.23834V9.7523ZM8.50222 11.7986C8.50222 11.7384 8.50222 11.7384 8.56241 11.7384C8.56241 11.7384 8.62259 11.7384 8.62259 11.7986V11.8588C8.62259 11.919 8.62259 11.919 8.68278 11.919C8.68278 11.919 8.74296 11.919 8.77306 11.8588C8.95361 11.7083 9.16426 11.618 9.34482 11.5278C9.25454 11.4375 8.86334 11.1968 8.77306 11.1366C8.71287 11.1366 8.68278 11.0764 8.68278 11.0764C8.68278 11.0764 8.62259 11.0764 8.62259 11.1366C8.62259 11.1968 8.62259 11.1967 8.62259 11.2268C8.62259 11.2268 8.62259 11.287 8.56241 11.287C8.56241 11.287 8.50222 11.287 8.50222 11.2268C8.50222 11.1366 8.50222 10.9861 8.50222 10.956C8.50222 10.8958 8.50222 10.8055 8.50222 10.6852C8.50222 10.625 8.50222 10.625 8.56241 10.625C8.56241 10.625 8.62259 10.625 8.62259 10.6852C8.62259 10.7454 8.62259 10.7454 8.62259 10.7755C8.62259 10.8356 8.71287 10.8657 8.80315 10.956L9.43509 11.4375C9.58556 11.3472 10.2777 10.9259 10.3981 10.8055C10.4582 10.7454 10.4582 10.7454 10.4883 10.6551C10.4883 10.5949 10.4883 10.5648 10.4883 10.5648C10.4883 10.5648 10.4883 10.5046 10.5485 10.5046C10.5485 10.5046 10.6087 10.5046 10.6087 10.5648V10.6551C10.6087 10.7153 10.6087 10.9259 10.6087 11.1667C10.6087 11.2569 10.6087 11.2569 10.5485 11.2569C10.5485 11.2569 10.4883 11.2569 10.4883 11.1967C10.4883 11.1967 10.4883 11.1366 10.4282 11.1967C10.1874 11.3472 9.91658 11.4676 9.70593 11.618L10.3379 12.0092C10.3981 12.0694 10.4282 12.0694 10.4282 12.0694C10.4883 12.0694 10.4883 12.0092 10.4883 12.0092V11.9491C10.4883 11.9491 10.4883 11.8889 10.5485 11.8889C10.5485 11.8889 10.6087 11.8889 10.6087 11.9491V12.0092C10.6087 12.0092 10.6087 12.1898 10.6087 12.2801C10.6087 12.3403 10.6087 12.4606 10.6087 12.5208V12.581C10.6087 12.6412 10.6087 12.6412 10.5485 12.6412C10.5485 12.6412 10.4883 12.6412 10.4883 12.581C10.4883 12.581 10.4883 12.5208 10.4883 12.4907C10.4883 12.4005 10.4282 12.3403 10.3078 12.25L9.58556 11.7384L8.83324 12.2199C8.74297 12.2801 8.68278 12.3704 8.65269 12.4606C8.65269 12.5208 8.65269 12.5509 8.65269 12.5509C8.65269 12.5509 8.65269 12.6111 8.5925 12.6111C8.5925 12.6111 8.5925 12.6111 8.5925 12.5509C8.5925 12.4907 8.5925 12.2801 8.5925 12.1296C8.50222 12.0694 8.50222 11.919 8.50222 11.7986ZM8.50222 15.9514C8.50222 15.8912 8.50222 15.8912 8.56241 15.8912C8.56241 15.8912 8.62259 15.8912 8.62259 15.9514C8.62259 16.0116 8.62259 16.0417 8.62259 16.0417C8.62259 16.1319 8.68278 16.1319 8.77306 16.1319C8.86334 16.1319 8.92352 16.1319 9.34482 16.1319H9.8263C10.1573 16.1319 10.3379 16.1319 10.3981 16.0717C10.4582 16.0116 10.4582 15.9213 10.4582 15.6805C10.4582 15.5301 10.4582 15.4398 10.368 15.3495C10.3078 15.2893 10.2777 15.2893 10.2175 15.2893C10.1573 15.2893 10.1573 15.2893 10.1573 15.2292L10.2175 15.169C10.2777 15.169 10.4582 15.169 10.4883 15.2292C10.5485 15.2292 10.5786 15.2893 10.5786 15.4097C10.5786 15.5903 10.5786 15.7407 10.5786 15.8912C10.5786 16.0417 10.5786 16.1319 10.5786 16.2824C10.5786 16.3426 10.5786 16.3727 10.5786 16.4329C10.5786 16.493 10.5786 16.5833 10.5786 16.6134C10.5786 16.6435 10.5786 16.6736 10.5184 16.6736C10.5184 16.6736 10.4582 16.6736 10.4582 16.6134C10.4582 16.5532 10.4582 16.5231 10.4582 16.5231C10.4582 16.463 10.3981 16.463 10.3078 16.4329C10.2175 16.4329 9.97676 16.4329 9.73602 16.4329H9.25454C8.86334 16.4329 8.77306 16.4329 8.68278 16.4329C8.5925 16.4329 8.5925 16.493 8.53232 16.5231C8.53232 16.5231 8.53232 16.5833 8.53232 16.6134C8.53232 16.6435 8.53232 16.6736 8.47213 16.6736C8.47213 16.6736 8.41195 16.6736 8.41195 16.6134C8.41195 16.4629 8.41195 16.3426 8.41195 16.2222C8.50222 16.3125 8.50222 16.0718 8.50222 15.9514ZM8.50222 18.5393C8.50222 18.5393 8.56241 18.5393 8.68278 18.5393C8.74297 18.5393 8.83324 18.5393 8.86334 18.5393C8.86334 18.5393 8.92352 18.5393 8.92352 18.5995C8.92352 18.5995 8.92352 18.5995 8.86334 18.5995C8.86334 18.5995 8.80315 18.5995 8.77306 18.5995C8.71287 18.5995 8.68278 18.6597 8.68278 18.7801C8.68278 18.8403 8.68278 19.1713 8.68278 19.2014C8.68278 19.2014 8.68278 19.2014 8.74297 19.2014H9.405H9.46519C9.46519 19.1412 9.46519 18.7801 9.46519 18.7199C9.46519 18.6597 9.46519 18.6296 9.405 18.5694L9.34482 18.5093C9.34482 18.5093 9.34482 18.5093 9.405 18.5093C9.405 18.5093 9.46519 18.5093 9.58556 18.5093C9.64574 18.5093 9.73602 18.5093 9.76611 18.5093C9.76611 18.5093 9.8263 18.5092 9.8263 18.5694V18.6296C9.76611 18.6296 9.76611 18.6296 9.73602 18.6296C9.70593 18.6296 9.64574 18.6898 9.64574 18.7801C9.64574 18.8403 9.64574 19.1713 9.64574 19.2014C9.64574 19.2014 9.64574 19.2014 9.70593 19.2014H9.88648C9.97676 19.2014 10.2175 19.2014 10.2777 19.2014C10.4582 19.2014 10.5184 19.1111 10.5184 18.8102C10.5184 18.7199 10.5184 18.6296 10.4582 18.5694C10.3981 18.5092 10.368 18.4792 10.2777 18.4792C10.2175 18.4792 10.2175 18.4792 10.2175 18.419L10.2777 18.3588C10.3379 18.3588 10.5184 18.3588 10.5485 18.419C10.6087 18.419 10.6087 18.4792 10.6087 18.5694C10.6087 18.75 10.6087 18.9606 10.6087 19.081C10.6087 19.2315 10.6087 19.3218 10.6087 19.412C10.6087 19.4722 10.6087 19.5023 10.6087 19.5625C10.6087 19.6227 10.6087 19.713 10.6087 19.743C10.6087 19.8032 10.6087 19.8032 10.5485 19.8032C10.5485 19.8032 10.4883 19.8032 10.4883 19.743C10.4883 19.6829 10.4883 19.6528 10.4883 19.6528C10.4883 19.5926 10.4282 19.5625 10.3379 19.5625C10.2476 19.5625 10.0069 19.5625 9.76611 19.5625H9.28463C8.89343 19.5625 8.80315 19.5625 8.71287 19.5625C8.62259 19.5625 8.62259 19.6227 8.56241 19.713C8.56241 19.713 8.56241 19.7731 8.56241 19.8032C8.56241 19.8634 8.56241 19.8634 8.50222 19.8634C8.50222 19.8634 8.44204 19.8634 8.44204 19.8032C8.44204 19.6528 8.44204 19.4722 8.44204 19.412C8.44204 19.3218 8.44204 18.6898 8.44204 18.6597C8.44204 18.5995 8.44204 18.5694 8.44204 18.5694C8.44204 18.5694 8.47213 18.5694 8.50222 18.5393ZM10.5184 31.4491C10.5184 31.5093 10.5184 31.5995 10.5184 31.6296C10.5184 31.6898 10.5184 31.6898 10.4582 31.6898C10.4582 31.6898 10.3981 31.6898 10.3981 31.6296C10.3981 31.5694 10.3981 31.5694 10.3981 31.5393C10.3981 31.4792 10.3379 31.4792 10.2476 31.4491C10.1573 31.4491 9.91658 31.4491 9.67584 31.4491H9.19435C8.80315 31.4491 8.71287 31.4491 8.62259 31.4491C8.53232 31.4491 8.53232 31.5093 8.47213 31.5995C8.47213 31.5995 8.47213 31.6597 8.47213 31.6898C8.47213 31.75 8.47213 31.75 8.41195 31.75C8.41195 31.75 8.35176 31.75 8.35176 31.6898C8.35176 31.5393 8.35176 31.3588 8.35176 31.2986C8.35176 31.2083 8.35176 30.5764 8.35176 30.5463C8.35176 30.4861 8.35176 30.456 8.35176 30.456V30.3958C8.35176 30.3958 8.35176 30.3958 8.41195 30.3958C8.41195 30.3958 8.47213 30.3958 8.5925 30.3958C8.65269 30.3958 8.74296 30.3958 8.77306 30.3958C8.77306 30.3958 8.83324 30.3958 8.83324 30.456C8.83324 30.456 8.83324 30.456 8.77306 30.456C8.77306 30.456 8.71287 30.456 8.68278 30.456C8.62259 30.456 8.5925 30.5162 8.5925 30.6366C8.5925 30.6967 8.5925 31.0278 8.5925 31.0579C8.5925 31.0579 8.5925 31.0579 8.65269 31.0579H9.31472H9.37491C9.37491 30.9977 9.37491 30.6366 9.37491 30.5764C9.37491 30.5162 9.37491 30.4861 9.31472 30.4259L9.25454 30.3657C9.25454 30.3657 9.25454 30.3657 9.31472 30.3657C9.31472 30.3657 9.37491 30.3657 9.49528 30.3657C9.55547 30.3657 9.64574 30.3657 9.67584 30.3657C9.67584 30.3657 9.73602 30.3657 9.73602 30.4259V30.4861C9.67584 30.4861 9.67584 30.4861 9.64574 30.4861C9.61565 30.4861 9.55547 30.5463 9.55547 30.6366C9.55547 30.6967 9.55547 31.0278 9.55547 31.0579C9.55547 31.0579 9.55546 31.0579 9.61565 31.0579H9.79621C9.88648 31.0579 10.1272 31.0579 10.1874 31.0579C10.368 31.0579 10.4282 30.9676 10.4282 30.6667C10.4282 30.6065 10.4281 30.4861 10.368 30.4259C10.3078 30.3657 10.2777 30.3356 10.1874 30.2755C10.1272 30.2755 10.1272 30.2755 10.1272 30.2153L10.1874 30.1551C10.2476 30.1551 10.4282 30.1551 10.4582 30.2153C10.5184 30.2153 10.5184 30.2755 10.5184 30.3657C10.5184 30.5463 10.5184 30.7569 10.5184 30.8773C10.5184 31.0278 10.5184 31.118 10.5184 31.2083C10.5184 31.2986 10.5184 31.3588 10.5184 31.4491ZM10.3078 36.8356C10.368 36.8958 10.368 36.8958 10.3981 36.8958C10.4582 36.8958 10.4582 36.8356 10.4582 36.8356V36.7754C10.4582 36.7754 10.4582 36.7153 10.5184 36.7153C10.5184 36.7153 10.5786 36.7153 10.5786 36.7754V36.8356C10.5786 36.8356 10.5786 37.0162 10.5786 37.1065C10.5786 37.1667 10.5786 37.287 10.5786 37.3472V37.4074C10.5786 37.4676 10.5786 37.4676 10.5184 37.4676C10.5184 37.4676 10.4582 37.4676 10.4582 37.4074C10.4582 37.4074 10.4582 37.3472 10.4582 37.3171C10.4582 37.2268 10.3981 37.1667 10.2777 37.0764L9.55547 36.5648L8.80315 37.0463C8.71287 37.1065 8.65269 37.1968 8.62259 37.287C8.62259 37.3472 8.62259 37.3773 8.62259 37.3773C8.62259 37.3773 8.62259 37.4375 8.56241 37.4375C8.56241 37.4375 8.56241 37.4375 8.56241 37.3773C8.56241 37.3171 8.56241 37.1065 8.56241 36.956C8.56241 36.8958 8.56241 36.7754 8.56241 36.625C8.56241 36.5648 8.56241 36.5648 8.62259 36.5648C8.62259 36.5648 8.68278 36.5648 8.68278 36.625V36.6852C8.68278 36.7454 8.68278 36.7454 8.74297 36.7454C8.74297 36.7454 8.80315 36.7454 8.83324 36.6852C9.0138 36.5347 9.22445 36.4444 9.405 36.3542C9.31472 36.2639 8.92352 36.0231 8.83324 35.963C8.77306 35.963 8.74297 35.9028 8.74297 35.9028C8.74297 35.9028 8.68278 35.9028 8.68278 35.963C8.68278 36.0231 8.68278 36.0231 8.68278 36.0532C8.68278 36.0532 8.68278 36.1134 8.62259 36.1134C8.62259 36.1134 8.56241 36.1134 8.56241 36.0532C8.56241 35.963 8.56241 35.8125 8.56241 35.7824C8.56241 35.7523 8.56241 35.6319 8.56241 35.5116C8.56241 35.4514 8.56241 35.4514 8.62259 35.4514C8.62259 35.4514 8.68278 35.4514 8.68278 35.5116C8.68278 35.5718 8.68278 35.5717 8.68278 35.6018C8.68278 35.662 8.77306 35.6921 8.86334 35.7824L9.49528 36.2639C9.64574 36.1736 10.3379 35.7523 10.4582 35.6319C10.5184 35.5718 10.5485 35.5417 10.5485 35.4815C10.5485 35.4213 10.5485 35.3912 10.5485 35.3912C10.5485 35.3912 10.5485 35.331 10.6087 35.331C10.6087 35.331 10.6689 35.331 10.6689 35.3912V35.4815C10.6689 35.5417 10.6689 35.7523 10.6689 35.993C10.6689 36.0532 10.6689 36.0833 10.6087 36.0833C10.6087 36.0833 10.5485 36.0833 10.5485 36.0231C10.5485 36.0231 10.5485 35.9629 10.4883 36.0231C10.2476 36.1736 9.97676 36.3542 9.76611 36.4444L10.3078 36.8356ZM8.50222 28.9514C8.50222 28.7708 8.50222 28.5602 8.5925 28.4398C8.65269 28.3495 8.77306 28.2592 8.98371 28.2592C9.19435 28.2592 9.37491 28.3495 9.55547 28.6504C9.8263 28.4097 10.067 28.2292 10.2777 28.0185C10.4282 27.868 10.4282 27.7778 10.4582 27.7477C10.4582 27.6875 10.4582 27.6875 10.4582 27.6875C10.4582 27.6875 10.4582 27.6273 10.5184 27.6273C10.5184 27.6273 10.5786 27.6273 10.5786 27.6875V27.9583C10.5786 28.1088 10.5786 28.1991 10.5184 28.2292C10.4582 28.3796 10.3379 28.4699 10.1272 28.6204C9.97676 28.7106 9.79621 28.8611 9.73602 28.8611V28.9213V29.162H9.79621C10.0369 29.162 10.2777 29.162 10.368 29.162C10.4582 29.162 10.5184 29.162 10.5184 29.0718C10.5184 29.0116 10.5184 28.9815 10.5184 28.9213C10.5184 28.9213 10.5184 28.8611 10.5786 28.8611C10.5786 28.8611 10.6388 28.8611 10.6388 28.9213C10.6388 29.0718 10.6388 29.3125 10.6388 29.3426C10.6388 29.4028 10.6388 29.5833 10.6388 29.6736C10.6388 29.7338 10.6388 29.7338 10.5786 29.7338C10.5786 29.7338 10.5184 29.7338 10.5184 29.6736C10.5184 29.6134 10.5184 29.5833 10.5184 29.5833C10.5184 29.5231 10.4582 29.493 10.368 29.493C10.2777 29.493 10.0369 29.493 9.79621 29.493H9.31472C8.92352 29.493 8.83324 29.493 8.74297 29.493C8.65269 29.493 8.65269 29.5532 8.5925 29.6435C8.5925 29.6435 8.5925 29.7037 8.5925 29.7338C8.5925 29.794 8.5925 29.794 8.53232 29.794C8.53232 29.794 8.47213 29.794 8.47213 29.7338C8.47213 29.5833 8.47213 29.4028 8.47213 29.3426C8.50222 29.2824 8.50222 29.0417 8.50222 28.9514ZM8.50222 26.6643C8.50222 26.6042 8.50222 26.6042 8.50222 26.6042C8.56241 26.6042 8.56241 26.6042 8.56241 26.6643C8.56241 26.7245 8.56241 26.7245 8.56241 26.7546C8.56241 26.8449 8.62259 26.8449 8.71287 26.8449C8.80315 26.8449 8.86334 26.8449 9.28463 26.8449H9.76611C10.0069 26.8449 10.2476 26.8449 10.3379 26.8449C10.4282 26.8449 10.4282 26.7847 10.4883 26.7546C10.4883 26.6944 10.4883 26.6643 10.4883 26.6042C10.4883 26.544 10.4883 26.544 10.5485 26.544C10.5485 26.544 10.6087 26.544 10.6087 26.6042C10.6087 26.7847 10.6087 26.9954 10.6087 27.0255C10.6087 27.0856 10.6087 27.2662 10.6087 27.4167C10.6087 27.4768 10.6087 27.4768 10.5485 27.4768C10.5485 27.4768 10.4883 27.4768 10.4883 27.4167C10.4883 27.3565 10.4883 27.3264 10.4883 27.3264C10.4883 27.2662 10.4282 27.2662 10.3379 27.2361C10.2476 27.2361 10.0069 27.2361 9.76611 27.2361H9.28463C8.89343 27.2361 8.80315 27.2361 8.71287 27.2361C8.62259 27.2361 8.56241 27.2963 8.56241 27.3264C8.56241 27.3565 8.56241 27.3866 8.56241 27.4167C8.56241 27.4768 8.56241 27.4768 8.50222 27.4768C8.50222 27.4768 8.50222 27.4768 8.50222 27.4167C8.50222 27.3264 8.50222 27.1458 8.50222 27.0255C8.50222 26.9352 8.50222 26.7546 8.50222 26.6643ZM8.50222 22C8.50222 21.9097 8.50222 21.8194 8.50222 21.7292V20.6458C8.50222 20.5555 8.50222 20.4954 8.50222 20.4653C8.50222 20.4051 8.50222 20.4051 8.50222 20.375C8.50222 20.375 8.50222 20.375 8.56241 20.375C8.62259 20.375 8.80315 20.375 8.89343 20.375C8.95361 20.375 8.95361 20.375 8.95361 20.4352C8.95361 20.4352 8.95361 20.4954 8.89343 20.4954H8.83324C8.77306 20.4954 8.68278 20.5856 8.68278 20.8264V21.1574H9.76611C10.0069 21.1574 10.2476 21.1574 10.3379 21.1574C10.4282 21.1574 10.4883 21.0972 10.4883 21.0671C10.4883 21.0069 10.4883 20.9768 10.4883 20.9167C10.4883 20.8565 10.4883 20.8565 10.5485 20.8565C10.5485 20.8565 10.6087 20.8565 10.6087 20.9167C10.6087 21.0972 10.6087 21.3079 10.6087 21.338C10.6087 21.3981 10.6087 21.5787 10.6087 21.7292C10.6087 21.7893 10.6087 21.7893 10.5485 21.7893C10.5485 21.7893 10.4883 21.7893 10.4883 21.7292C10.4883 21.669 10.4883 21.6389 10.4883 21.6389C10.4883 21.5787 10.4282 21.5486 10.3379 21.5486C10.2476 21.5486 10.0069 21.5486 9.76611 21.5486H8.68278V21.9699C8.68278 22.1204 8.68278 22.2106 8.77306 22.2407C8.83324 22.3009 8.86334 22.3009 8.86334 22.3009C8.86334 22.3009 8.92352 22.3009 8.92352 22.3611C8.92352 22.3611 8.92352 22.4213 8.86334 22.4213C8.80315 22.4213 8.5925 22.3611 8.53232 22.3611C8.47213 22.3611 8.47213 22.3611 8.47213 22.3009C8.47213 22.0903 8.50222 22.0903 8.50222 22ZM8.50222 23.1736C8.65269 23.1134 9.73602 22.662 10.1272 22.4514C10.368 22.3611 10.3981 22.2708 10.3981 22.2106C10.3981 22.1505 10.3981 22.1204 10.3981 22.1204C10.3981 22.0602 10.3981 22.0602 10.4582 22.0602C10.4582 22.0602 10.5184 22.0602 10.5184 22.2106C10.5184 22.3009 10.5184 22.4815 10.5184 22.7222C10.5184 22.7824 10.5184 22.8125 10.5184 22.8125C10.5184 22.8125 10.4582 22.8125 10.4582 22.7523L10.3981 22.6921L9.88648 22.8727C9.88648 22.8727 9.88648 22.8727 9.88648 22.9329V23.5949C9.88648 23.5949 9.88648 23.5949 9.88648 23.6551L10.2175 23.8055C10.2777 23.8657 10.368 23.8657 10.368 23.8657C10.4281 23.8657 10.4582 23.8055 10.4582 23.7755V23.7153C10.4582 23.6551 10.4582 23.6551 10.5184 23.6551C10.5184 23.6551 10.5786 23.6551 10.5786 23.7153C10.5786 23.8055 10.5786 23.956 10.5786 23.9861C10.5786 24.0463 10.5786 24.1667 10.5786 24.3171C10.5786 24.3773 10.5786 24.3773 10.5184 24.3773C10.5184 24.3773 10.4582 24.3773 10.4582 24.3171C10.4582 24.2569 10.4582 24.2569 10.4582 24.2268C10.4582 24.0764 10.368 24.0463 10.2175 23.9861L8.56241 23.2639C8.47213 23.2037 8.47213 23.2037 8.47213 23.1736C8.47213 23.1435 8.47213 23.1736 8.50222 23.1736ZM8.47213 26.0324C8.47213 26.0324 8.47213 25.9722 8.53232 25.9421C8.53232 25.8518 8.53232 25.7616 8.53232 25.6713V24.5879C8.53232 24.4977 8.53232 24.4375 8.53232 24.4074C8.53232 24.3472 8.53232 24.3472 8.53232 24.3171C8.53232 24.3171 8.53232 24.3171 8.5925 24.3171C8.65269 24.3171 8.83324 24.3171 8.92352 24.3171C8.98371 24.3171 8.98371 24.3171 8.98371 24.3773C8.98371 24.3773 8.98371 24.4375 8.92352 24.4375H8.86334C8.80315 24.4375 8.71287 24.5278 8.71287 24.7685V25.0995H9.79621C10.0369 25.0995 10.2777 25.0995 10.368 25.0995C10.4582 25.0995 10.5184 25.0393 10.5184 25.0093C10.5184 24.9491 10.5184 24.919 10.5184 24.8588C10.5184 24.7986 10.5184 24.7986 10.5786 24.7986C10.5786 24.7986 10.6388 24.7986 10.6388 24.8588C10.6388 25.0393 10.6388 25.25 10.6388 25.2801C10.6388 25.3403 10.6388 25.5208 10.6388 25.6713C10.6388 25.7315 10.6388 25.7315 10.5786 25.7315C10.5786 25.7315 10.5184 25.7315 10.5184 25.6713C10.5184 25.6111 10.5184 25.581 10.5184 25.581C10.5184 25.5208 10.4582 25.4907 10.368 25.4907C10.2777 25.4907 10.0369 25.4907 9.79621 25.4907H8.71287V25.912C8.71287 26.0625 8.71287 26.1528 8.80315 26.1829C8.86334 26.243 8.89343 26.243 8.89343 26.243C8.89343 26.243 8.95361 26.243 8.95361 26.3032C8.95361 26.3032 8.95361 26.3634 8.89343 26.3634C8.83324 26.3634 8.62259 26.3032 8.56241 26.3032C8.47213 26.0926 8.47213 26.0926 8.47213 26.0324ZM10.5184 38.912C10.5184 38.9722 10.5184 39.0625 10.5184 39.0926C10.5184 39.1528 10.5184 39.1528 10.4582 39.1528C10.4582 39.1528 10.3981 39.1528 10.3981 39.0926C10.3981 39.0324 10.3981 39.0324 10.3981 39.0023C10.3981 38.9421 10.3379 38.912 10.2476 38.912C10.1573 38.912 9.91658 38.912 9.67584 38.912H9.19435C8.80315 38.912 8.71287 38.912 8.62259 38.912C8.53232 38.912 8.53232 38.9722 8.47213 39.0625C8.47213 39.0625 8.47213 39.1227 8.47213 39.1528C8.47213 39.1829 8.47213 39.213 8.41195 39.213C8.41195 39.213 8.35176 39.213 8.35176 39.1528C8.35176 39.0023 8.35176 38.8217 8.35176 38.7616C8.35176 38.6713 8.35176 38.0393 8.35176 38.0092C8.35176 37.9491 8.35176 37.919 8.35176 37.919V37.8588C8.35176 37.8588 8.35176 37.8588 8.41195 37.8588C8.41195 37.8588 8.47213 37.8588 8.5925 37.8588C8.65269 37.8588 8.74296 37.8588 8.77306 37.8588C8.77306 37.8588 8.83324 37.8588 8.83324 37.919C8.83324 37.919 8.83324 37.919 8.77306 37.919C8.77306 37.919 8.71287 37.919 8.68278 37.919C8.62259 37.919 8.5925 37.9792 8.5925 38.0995C8.5925 38.1597 8.5925 38.4907 8.5925 38.5208C8.5925 38.5208 8.5925 38.5208 8.65269 38.5208H9.31472H9.37491C9.37491 38.4606 9.37491 38.0995 9.37491 38.0393C9.37491 37.9792 9.37491 37.9491 9.31472 37.8889L9.25454 37.8287C9.25454 37.8287 9.25454 37.8287 9.31472 37.8287C9.31472 37.8287 9.37491 37.8287 9.49528 37.8287C9.55547 37.8287 9.64574 37.8287 9.67584 37.8287C9.67584 37.8287 9.73602 37.8287 9.73602 37.8889V37.9491C9.67584 37.9491 9.67584 37.9491 9.64574 37.9491C9.61565 37.9491 9.55547 38.0093 9.55547 38.0995C9.55547 38.1597 9.55547 38.4907 9.55547 38.5208C9.55547 38.5208 9.55546 38.5208 9.61565 38.5208H9.79621C9.88648 38.5208 10.1272 38.5208 10.1874 38.5208C10.368 38.5208 10.4282 38.4305 10.4282 38.1296C10.4282 38.0393 10.4281 37.9491 10.368 37.8889C10.3078 37.8287 10.2777 37.7986 10.1874 37.7986C10.1272 37.7986 10.1272 37.7986 10.1272 37.7384L10.1874 37.6782C10.2476 37.6782 10.4282 37.6782 10.4582 37.7384C10.5184 37.7384 10.5184 37.7986 10.5184 37.8889C10.5184 38.0694 10.5184 38.2801 10.5184 38.4005C10.5184 38.5509 10.5184 38.6412 10.5184 38.7315C10.5184 38.8217 10.5184 38.8518 10.5184 38.912ZM10.4282 33.1643L8.80315 33.8866C8.65269 33.9468 8.62259 33.9768 8.62259 34.0671C8.62259 34.1273 8.62259 34.1574 8.62259 34.1574C8.62259 34.2176 8.62259 34.2176 8.56241 34.2176L8.50222 34.1574C8.50222 34.0069 8.50222 33.8866 8.50222 33.7662C8.50222 33.706 8.50222 33.5856 8.50222 33.4352C8.50222 33.375 8.50222 33.375 8.56241 33.375C8.56241 33.375 8.62259 33.375 8.62259 33.4352C8.62259 33.4954 8.62259 33.5255 8.62259 33.5255L8.68278 33.5856C8.74297 33.5856 8.77306 33.5255 8.86334 33.5255L10.0369 33.044C9.76611 32.9537 8.89343 32.5625 8.74297 32.5324C8.68278 32.5324 8.65269 32.4722 8.65269 32.4722C8.5925 32.4722 8.5925 32.4722 8.5925 32.5324C8.5925 32.5926 8.5925 32.6227 8.5925 32.6227C8.5925 32.6829 8.5925 32.6829 8.53232 32.6829C8.53232 32.6829 8.47213 32.6227 8.47213 32.5926C8.47213 32.4421 8.47213 32.3518 8.47213 32.3217C8.47213 32.2616 8.47213 32.1412 8.47213 32.081C8.47213 32.0208 8.47213 32.0208 8.53232 32.0208C8.53232 32.0208 8.5925 32.0208 8.5925 32.081C8.5925 32.1412 8.5925 32.1713 8.65269 32.2315C8.71287 32.2917 8.71287 32.3218 8.89343 32.3819C9.13417 32.4722 9.28463 32.5625 9.61565 32.7129C10.0069 32.8935 10.2777 32.9838 10.4282 33.1042C10.5786 33.1643 10.6087 33.1944 10.6087 33.2546C10.5485 33.1042 10.5184 33.1042 10.4282 33.1643ZM10.368 14.537C10.2175 14.6875 10.0369 14.7778 9.64574 14.7778H9.25454C8.86334 14.7778 8.77306 14.7778 8.68278 14.7778C8.5925 14.7778 8.5925 14.838 8.53232 14.9282C8.53232 14.9282 8.53232 14.9884 8.53232 15.0185C8.53232 15.0787 8.53232 15.0787 8.47213 15.0787C8.47213 15.0787 8.41195 15.0787 8.41195 15.0185C8.41195 14.868 8.41195 14.6875 8.41195 14.5972C8.41195 14.537 8.41195 14.3565 8.41195 14.2662C8.41195 14.206 8.41195 14.206 8.47213 14.206C8.47213 14.206 8.53232 14.206 8.53232 14.2662C8.53232 14.3264 8.53232 14.3264 8.53232 14.3565C8.53232 14.4467 8.5925 14.4468 8.68278 14.4468C8.77306 14.4468 8.83324 14.4468 9.25454 14.4468H9.64574C10.0369 14.4468 10.1573 14.3565 10.3078 14.2662C10.3981 14.1157 10.3981 14.0255 10.3981 13.9352C10.3981 13.8449 10.3379 13.6944 10.2476 13.544C10.0971 13.3935 9.85639 13.3935 9.58556 13.3935H9.25454C8.86334 13.3935 8.77306 13.3935 8.68278 13.3935C8.5925 13.3935 8.5925 13.4537 8.53232 13.4838C8.53232 13.4838 8.53232 13.544 8.53232 13.5741C8.53232 13.6042 8.53232 13.6342 8.47213 13.6342C8.47213 13.6342 8.41195 13.6342 8.41195 13.5741C8.41195 13.4236 8.41195 13.243 8.41195 13.243C8.41195 13.1829 8.41195 13.0023 8.41195 12.912C8.41195 12.8518 8.41195 12.8518 8.47213 12.8518C8.47213 12.8518 8.53232 12.8518 8.53232 12.912C8.53232 12.9722 8.53232 12.9722 8.53232 13.0023C8.53232 13.0926 8.5925 13.0926 8.68278 13.0926C8.77306 13.0926 8.83324 13.0926 9.25454 13.0926H9.52537C9.79621 13.0926 10.1573 13.1528 10.3379 13.3634C10.4883 13.544 10.5184 13.7546 10.5184 13.9352C10.5485 14.0555 10.5485 14.3565 10.368 14.537Z" fill="#038DD2"/>
<path d="M43.7709 20.1343C43.9214 20.1343 44.1019 20.0741 44.2524 19.8634C44.3126 19.8032 44.3427 19.713 44.3427 19.6227V19.4722H43.6806C43.5001 19.4722 43.4399 19.4722 43.4098 19.5625C43.3797 19.6528 43.3496 19.713 43.3496 19.7431C43.3797 19.9537 43.47 20.1343 43.7709 20.1343Z" fill="#038DD2"/>
<path d="M43.3496 22.0903C43.3496 22.2708 43.4399 22.7523 44.2524 22.7523C44.8843 22.7523 45.2454 22.3611 45.2454 21.9398C45.2454 21.6088 45.0649 21.2778 44.4029 21.2778C43.8311 21.2477 43.3496 21.5787 43.3496 22.0903Z" fill="#038DD2"/>
<path d="M44.824 20.0139C45.0046 20.0139 45.2453 19.9236 45.2453 19.6829C45.2453 19.6227 45.2453 19.5926 45.2453 19.5324C45.2453 19.5324 45.2453 19.4722 45.1851 19.4722H44.5231H44.4629C44.4629 19.5324 44.4629 19.5324 44.4629 19.6227C44.4629 19.713 44.4629 19.8032 44.5231 19.8634C44.5833 19.9537 44.6735 20.0139 44.824 20.0139Z" fill="#038DD2"/>
<path d="M45.1851 32.1111H44.3425C44.2824 32.1111 44.2824 32.1111 44.2824 32.1713C44.2824 32.2315 44.2222 32.3217 44.2222 32.412C44.2222 32.5023 44.2222 32.5625 44.2824 32.5926C44.3425 32.6829 44.4629 32.7731 44.7036 32.7731C45.0949 32.7731 45.1851 32.5023 45.1851 32.3518C45.2453 32.2014 45.2453 32.1713 45.1851 32.1111Z" fill="#038DD2"/>
<path d="M44.7336 24.7083C45.1248 24.7083 45.215 24.4375 45.215 24.287C45.215 24.2268 45.215 24.1366 45.215 24.1366C45.215 24.1366 45.215 24.0764 45.1549 24.0764H44.3123C44.2521 24.0764 44.2521 24.0764 44.2521 24.1366C44.2521 24.1968 44.1919 24.287 44.1919 24.3773C44.1919 24.4676 44.1919 24.5278 44.2521 24.5579C44.3724 24.6181 44.4928 24.7083 44.7336 24.7083Z" fill="#038DD2"/>
<path d="M44.8541 17.5764L44.1318 17.3055V17.8773L44.8541 17.5764C44.8541 17.6366 44.8541 17.6366 44.8541 17.5764Z" fill="#038DD2"/>
<path d="M46.3888 9.7523H26.8286C26.9791 9.99304 27.1596 10.3241 27.4004 10.8055C28.1527 12.3704 35.9467 29.4329 38.9559 35.7523C40.7615 39.4236 42.1758 40.0856 43.2291 40.3565C43.9814 40.537 44.7036 40.5972 45.2152 40.5972C45.486 40.5972 45.6967 40.6574 45.6967 40.8379H46.449C46.8402 40.8379 47.1712 40.5069 47.1712 40.1157V10.4143C47.0809 10.0231 46.8101 9.7523 46.3888 9.7523ZM43.2592 10.7755C43.2592 10.7153 43.2592 10.625 43.2592 10.5949C43.2592 10.5648 43.2592 10.5347 43.3194 10.5347C43.3194 10.5347 43.3795 10.5347 43.3795 10.5949C43.3795 10.6551 43.3795 10.6852 43.3795 10.6852C43.3795 10.7454 43.4397 10.7755 43.53 10.7755C43.6805 10.7755 43.861 10.7755 44.1619 10.7755H44.6434C45.0647 10.7755 45.155 10.7755 45.2152 10.7755C45.3055 10.7755 45.3656 10.7153 45.3656 10.625C45.3656 10.625 45.3656 10.5648 45.3656 10.5347C45.3656 10.5046 45.3657 10.4745 45.4258 10.4745C45.4258 10.4745 45.486 10.4745 45.486 10.5347C45.486 10.6852 45.486 10.8657 45.486 10.956C45.486 11.0463 45.486 11.6782 45.486 11.7083C45.486 11.7685 45.486 11.7986 45.486 11.7986V11.8588C45.486 11.8588 45.486 11.8588 45.4258 11.8588C45.4258 11.8588 45.3657 11.8588 45.2453 11.8588C45.1851 11.8588 45.0948 11.8588 45.0647 11.8588C45.0647 11.8588 45.0045 11.8588 45.0045 11.7986C45.0045 11.7986 45.0045 11.7986 45.0647 11.7986C45.0647 11.7986 45.1249 11.7986 45.155 11.7986C45.1851 11.7986 45.2453 11.7384 45.2453 11.618C45.2453 11.5579 45.2453 11.2268 45.2453 11.1967C45.2453 11.1967 45.2453 11.1967 45.1851 11.1967H44.4629H44.3425C44.3425 11.2569 44.3425 11.618 44.3425 11.6782C44.3425 11.7384 44.3425 11.7685 44.4027 11.8287L44.4629 11.8889C44.4629 11.8889 44.4629 11.8889 44.4027 11.8889C44.4027 11.8889 44.3425 11.8889 44.2221 11.8889C44.1619 11.8889 44.0416 11.8889 44.0416 11.8889C44.0416 11.8889 43.9814 11.8889 43.9814 11.8287V11.7685C44.0416 11.7685 44.0416 11.7685 44.0717 11.7685C44.1319 11.7685 44.1619 11.7083 44.1619 11.618C44.1619 11.5579 44.1619 11.2268 44.1619 11.1967C44.1619 11.1967 44.1619 11.1967 44.1018 11.1967H43.861C43.7707 11.1967 43.53 11.1967 43.4397 11.1967C43.2592 11.1967 43.199 11.287 43.199 11.588C43.199 11.6782 43.199 11.7685 43.2592 11.8588C43.3194 11.919 43.3494 11.9491 43.4397 12.0092C43.4999 12.0092 43.4999 12.0092 43.4999 12.0694L43.4397 12.1296C43.3795 12.1296 43.199 12.1296 43.1087 12.0694C43.0184 12.0694 43.0184 12.0092 43.0184 11.919C43.0184 11.7384 43.0184 11.5278 43.0184 11.4074C43.0184 11.2569 43.0184 11.1667 43.0184 11.0764C43.2592 10.9259 43.2592 10.8958 43.2592 10.7755ZM45.3957 12.9722C45.3957 13.0324 45.3957 13.0324 45.3356 13.0324C45.3356 13.0324 45.2754 13.0324 45.2754 12.9722V12.912C45.2754 12.8518 45.2754 12.8518 45.2152 12.8518C45.2152 12.8518 45.155 12.8518 45.1249 12.912C44.8842 13.0625 44.7036 13.1528 44.493 13.243C44.6434 13.3333 45.0045 13.5741 45.0647 13.6342C45.1249 13.6342 45.155 13.6944 45.155 13.6944C45.155 13.6944 45.2152 13.6944 45.2152 13.6342C45.2152 13.5741 45.2152 13.5741 45.2152 13.544C45.2152 13.544 45.2152 13.4838 45.2754 13.4838C45.2754 13.4838 45.3356 13.4838 45.3356 13.544C45.3356 13.6343 45.3356 13.7847 45.3356 13.8148C45.3356 13.875 45.3356 13.9954 45.3356 14.0856C45.3356 14.1458 45.3356 14.1458 45.2754 14.1458C45.2754 14.1458 45.2152 14.1458 45.2152 14.0856C45.2152 14.0255 45.2152 14.0255 45.2152 13.9954C45.2152 13.9352 45.1249 13.9051 44.9744 13.8148L44.3425 13.3634C44.192 13.4537 43.4397 13.9352 43.3494 13.9954C43.2893 14.0555 43.2592 14.0856 43.2592 14.1458C43.2592 14.206 43.2592 14.2361 43.2592 14.2361C43.2592 14.2361 43.2592 14.2963 43.199 14.2963C43.199 14.2963 43.1388 14.2963 43.1388 14.2361V14.1458C43.1388 14.0856 43.1388 13.875 43.1388 13.6342C43.1388 13.544 43.1388 13.544 43.199 13.544C43.199 13.544 43.2592 13.544 43.2592 13.6042C43.2592 13.6042 43.2592 13.6643 43.3194 13.6042C43.5902 13.4537 43.8309 13.2731 44.0717 13.1829L43.4096 12.7616C43.3494 12.7014 43.3194 12.7014 43.3194 12.7014C43.2592 12.7014 43.2592 12.7616 43.2592 12.7616V12.8217C43.2592 12.8217 43.2592 12.8819 43.199 12.8819C43.199 12.8819 43.1388 12.8819 43.1388 12.8217V12.7616C43.1388 12.7616 43.1388 12.581 43.1388 12.4907C43.1388 12.4305 43.1388 12.3102 43.1388 12.25C43.1388 12.1898 43.1388 12.1898 43.199 12.1898C43.199 12.1898 43.2592 12.1898 43.2592 12.25C43.2592 12.25 43.2592 12.3102 43.2592 12.3403C43.2592 12.4305 43.3194 12.4907 43.4397 12.581L44.192 13.1528L45.0045 12.6713C45.0948 12.6111 45.1851 12.5208 45.1851 12.4305C45.1851 12.3704 45.1851 12.3403 45.1851 12.2801C45.1851 12.2801 45.1851 12.2199 45.2453 12.2199C45.2453 12.2199 45.2453 12.2199 45.2453 12.2801C45.2453 12.3403 45.2453 12.5509 45.2453 12.7014C45.3957 12.7014 45.3957 12.8819 45.3957 12.9722ZM43.2592 19.1412C43.2592 19.081 43.2592 18.9907 43.2592 18.9606C43.2592 18.9005 43.2592 18.9005 43.3194 18.9005C43.3194 18.9005 43.3795 18.9005 43.3795 18.9606C43.3795 19.0208 43.3795 19.0509 43.3795 19.0509C43.3795 19.1111 43.4397 19.1412 43.53 19.1412C43.6805 19.1412 43.861 19.1412 44.1619 19.1412H44.6434C45.0647 19.1412 45.155 19.1412 45.2152 19.1412C45.3055 19.1412 45.3656 19.081 45.3656 18.9907C45.3656 18.9907 45.3656 18.9305 45.3656 18.9005C45.3656 18.8403 45.3657 18.8403 45.4258 18.8403C45.4258 18.8403 45.486 18.8403 45.486 18.9005C45.486 19.0509 45.486 19.2315 45.486 19.2917C45.486 19.4421 45.486 19.6227 45.486 19.713C45.486 20.2245 45.2152 20.3449 45.0647 20.3449C44.824 20.3449 44.6735 20.1944 44.5832 20.0139C44.493 20.2546 44.3124 20.5254 43.9513 20.5254C43.6805 20.5254 43.3194 20.2847 43.3194 19.7731C43.3194 19.7129 43.3194 19.6227 43.3194 19.5324C43.3194 19.4421 43.3194 19.3518 43.3194 19.2917C43.2592 19.2917 43.2592 19.2014 43.2592 19.1412ZM43.2592 25.8819C43.2592 25.8218 43.2592 25.7315 43.2592 25.7014C43.2592 25.7014 43.2592 25.7014 43.2592 25.6412C43.2592 25.6412 43.2592 25.6412 43.2592 25.581V25.3102C43.2592 25.1597 43.2592 25.0694 43.3194 25.0393C43.3795 24.8889 43.4999 24.7986 43.7407 24.6481C43.8911 24.5579 44.0717 24.4074 44.1319 24.3773V24.3171V24.0764H44.0416C43.8008 24.0764 43.5601 24.0764 43.4096 24.0764C43.3194 24.0764 43.2592 24.0764 43.2592 24.1667C43.2592 24.2268 43.2592 24.2569 43.2592 24.3171C43.2592 24.3171 43.2592 24.3773 43.199 24.3773C43.199 24.3773 43.1388 24.3773 43.1388 24.3171C43.1388 24.1667 43.1388 23.9259 43.1388 23.8958C43.1388 23.8356 43.1388 23.6551 43.1388 23.5648C43.1388 23.5046 43.1388 23.5046 43.199 23.5046C43.199 23.5046 43.2592 23.5046 43.2592 23.5648C43.2592 23.625 43.2592 23.6551 43.2592 23.6551C43.2592 23.7153 43.3194 23.7454 43.4096 23.7454C43.5601 23.7454 43.7407 23.7454 44.0416 23.7454H44.5231C44.9444 23.7454 45.0346 23.7454 45.0948 23.7454C45.1851 23.7454 45.2453 23.6852 45.2453 23.5949C45.2453 23.5949 45.2453 23.5347 45.2453 23.5046C45.2453 23.4444 45.2453 23.4444 45.3055 23.4444C45.3055 23.4444 45.3656 23.4444 45.3656 23.5046C45.3656 23.6551 45.3656 23.8356 45.3656 23.8958C45.3656 23.9861 45.3656 24.2268 45.3656 24.3171C45.3656 24.4977 45.3656 24.7083 45.2152 24.8287C45.155 24.919 45.0346 25.0093 44.824 25.0093C44.6434 25.0093 44.4328 24.919 44.192 24.618C43.861 24.8588 43.6203 25.0393 43.4397 25.25C43.2893 25.4005 43.2592 25.4907 43.2592 25.5208C43.2592 25.581 43.2592 25.581 43.2592 25.581C43.2592 25.6412 43.2592 25.6713 43.2592 25.6713C43.2592 25.7315 43.3194 25.7616 43.4096 25.7616C43.5601 25.7616 43.7407 25.7616 44.0416 25.7616H44.5231C44.9444 25.7616 45.0346 25.7616 45.0948 25.7616C45.1851 25.7616 45.2453 25.7014 45.2453 25.6111C45.2453 25.6111 45.2453 25.5509 45.2453 25.5208C45.2453 25.4606 45.2453 25.4606 45.3055 25.4606C45.3055 25.4606 45.3656 25.4606 45.3656 25.5208C45.3656 25.6713 45.3656 25.8518 45.3656 25.9421C45.3656 26.0324 45.3656 26.6643 45.3656 26.6944C45.3656 26.7245 45.3656 26.7847 45.3656 26.8449V26.9051C45.3656 26.9051 45.3657 26.9051 45.3055 26.9051C45.3055 26.9051 45.2453 26.9051 45.1249 26.9051C45.0647 26.9051 44.9744 26.9051 44.9444 26.9051C44.9444 26.9051 44.8842 26.9051 44.8842 26.8449C44.8842 26.8449 44.8842 26.8449 44.9444 26.8449C44.9444 26.8449 45.0045 26.8449 45.0346 26.8449C45.0948 26.8449 45.1249 26.7847 45.1249 26.6643C45.1249 26.6042 45.1249 26.2731 45.1249 26.243C45.1249 26.243 45.1249 26.243 45.0647 26.243H44.3425H44.2823C44.2823 26.3032 44.2823 26.6643 44.2823 26.7245C44.2823 26.7847 44.2823 26.8148 44.3425 26.875L44.4027 26.9352C44.4027 26.9352 44.4027 26.9352 44.3425 26.9352C44.3425 26.9352 44.2823 26.9352 44.1619 26.9352C44.1018 26.9352 43.9814 26.9352 43.9814 26.9352C43.9814 26.9352 43.9212 26.9352 43.9212 26.875V26.8148C43.9814 26.8148 43.9814 26.8148 44.0115 26.8148C44.0416 26.8148 44.1018 26.7546 44.1018 26.6643C44.1018 26.6042 44.1018 26.2731 44.1018 26.243C44.1018 26.243 44.1018 26.243 44.0416 26.243H43.8008C43.7106 26.243 43.4698 26.243 43.3795 26.243C43.199 26.243 43.1388 26.3333 43.1388 26.6343C43.1388 26.7245 43.1388 26.8148 43.199 26.9051C43.2592 26.9653 43.2893 26.9954 43.3795 27.0555C43.4397 27.0555 43.4397 27.0555 43.4397 27.1157L43.3795 27.1759C43.3194 27.1759 43.1388 27.1759 43.0485 27.1157C42.9582 27.1157 42.9582 27.0555 42.9582 26.9653C42.9582 26.7847 42.9582 26.5741 42.9582 26.4537C42.9582 26.3032 42.9582 26.213 42.9582 26.1227C43.2592 26.0324 43.2592 25.9421 43.2592 25.8819ZM43.3795 28.8912L45.0948 28.169C45.2453 28.1088 45.2754 28.0787 45.2754 27.9884C45.2754 27.9282 45.2754 27.8981 45.2754 27.8981C45.2754 27.8379 45.2754 27.838 45.3356 27.838L45.3957 27.8981C45.3957 28.0486 45.3957 28.2292 45.3957 28.3194C45.3957 28.3796 45.3957 28.5602 45.3957 28.7106C45.3957 28.7708 45.3957 28.7708 45.3356 28.7708C45.3356 28.7708 45.2754 28.7708 45.2754 28.7106C45.2754 28.6505 45.2754 28.6204 45.2754 28.6204L45.2152 28.5602C45.155 28.5602 45.1249 28.6204 45.0346 28.6204L43.8008 29.1018C44.0717 29.2523 44.9744 29.5833 45.1851 29.6736C45.2453 29.6736 45.2754 29.7338 45.2754 29.7338C45.3356 29.7338 45.3356 29.7338 45.3356 29.6736C45.3356 29.6134 45.3356 29.5833 45.3356 29.5833C45.3356 29.5231 45.3356 29.5231 45.3957 29.5231C45.3957 29.5231 45.4559 29.5833 45.4559 29.6134C45.4559 29.7639 45.4559 29.8842 45.4559 29.8842C45.4559 29.9444 45.4559 30.0648 45.4559 30.1551C45.4559 30.2153 45.4559 30.2153 45.3957 30.2153C45.3957 30.2153 45.3356 30.2153 45.3356 30.1551C45.3356 30.0949 45.3356 30.0648 45.2754 30.0046C45.2152 29.9444 45.2152 29.9143 45.0346 29.8542C44.7638 29.7639 44.6133 29.6736 44.2823 29.5231C43.861 29.3426 43.5601 29.1921 43.4397 29.1319C43.2893 29.0717 43.2592 29.0417 43.2592 28.9815C43.199 28.9815 43.2592 28.9815 43.3795 28.8912ZM45.3957 31.0278C45.3957 31.088 45.3957 31.088 45.3957 31.088C45.3356 31.088 45.3356 31.088 45.3356 31.0278C45.3356 30.9676 45.3356 30.9676 45.3356 30.9375C45.3356 30.8472 45.2754 30.8472 45.1851 30.8472C45.0948 30.8472 45.0045 30.8472 44.6133 30.8472H44.1319C43.861 30.8472 43.6504 30.8472 43.4999 30.8472C43.4096 30.8472 43.3494 30.9074 43.3494 30.9375C43.3494 30.9977 43.3494 31.0278 43.3494 31.088C43.3494 31.1481 43.3494 31.1481 43.2893 31.1481C43.2893 31.1481 43.2291 31.1481 43.2291 31.088C43.2291 30.9074 43.2291 30.6967 43.2291 30.6065C43.2291 30.5463 43.2291 30.3657 43.2291 30.2153C43.2291 30.1551 43.2291 30.1551 43.2893 30.1551C43.2893 30.1551 43.3494 30.1551 43.3494 30.2153C43.3494 30.2755 43.3494 30.3055 43.3494 30.3055C43.3494 30.3657 43.4096 30.3958 43.4999 30.3958C43.5902 30.3958 43.8309 30.3958 44.1319 30.3958H44.6133C45.0346 30.3958 45.1249 30.3958 45.1851 30.3958C45.2754 30.3958 45.3356 30.3356 45.3356 30.3055C45.3356 30.2454 45.3356 30.2454 45.3356 30.2153C45.3356 30.1551 45.3356 30.1551 45.3957 30.1551C45.3957 30.1551 45.3957 30.1551 45.3957 30.2153C45.3957 30.3055 45.3957 30.4861 45.3957 30.6065C45.3957 30.7569 45.3957 30.9375 45.3957 31.0278ZM45.3957 32.3518C45.3957 32.5324 45.3957 32.743 45.2453 32.8634C45.1851 32.9537 45.0647 33.044 44.8541 33.044C44.6735 33.044 44.4629 32.9537 44.2221 32.6528C43.8911 32.8935 43.6504 33.0741 43.4698 33.2847C43.3194 33.4352 43.2893 33.5255 43.2893 33.5555C43.2893 33.6157 43.2893 33.6157 43.2893 33.6157C43.2893 33.6157 43.2893 33.6759 43.2291 33.6759C43.2291 33.6759 43.1689 33.6759 43.1689 33.6157V33.3449C43.1689 33.1944 43.1689 33.1042 43.2291 33.0741C43.2893 32.9236 43.4096 32.8333 43.6504 32.6829C43.8008 32.5926 43.9814 32.4421 44.0416 32.412V32.3518V32.1111H43.9814C43.7407 32.1111 43.4999 32.1111 43.3494 32.1111C43.2592 32.1111 43.199 32.1111 43.199 32.2014C43.199 32.2616 43.199 32.2917 43.199 32.3518C43.199 32.3518 43.199 32.412 43.1388 32.412C43.1388 32.412 43.0786 32.412 43.0786 32.3518C43.0786 32.2014 43.0786 31.9606 43.0786 31.9305C43.0786 31.8704 43.0786 31.6898 43.0786 31.5995C43.0786 31.5393 43.0786 31.5393 43.1388 31.5393C43.1388 31.5393 43.199 31.5393 43.199 31.5995C43.199 31.6597 43.199 31.6898 43.199 31.6898C43.199 31.75 43.2592 31.7801 43.3494 31.7801C43.4999 31.7801 43.6805 31.7801 43.9814 31.7801H44.4629C44.8842 31.7801 44.9744 31.7801 45.0346 31.7801C45.1249 31.7801 45.1851 31.7199 45.1851 31.6296C45.1851 31.6296 45.1851 31.5694 45.1851 31.5393C45.1851 31.4792 45.1851 31.4792 45.2453 31.4792C45.2453 31.4792 45.3055 31.4792 45.3055 31.5393C45.3055 31.6898 45.3055 31.8704 45.3055 31.9305C45.3957 31.9907 45.3957 32.2616 45.3957 32.3518ZM43.3795 35.9329C43.53 35.7824 43.7106 35.6921 44.1319 35.6921H44.5532C44.9744 35.6921 45.0647 35.6921 45.1249 35.6921C45.2152 35.6921 45.2754 35.6319 45.2754 35.5417C45.2754 35.5417 45.2754 35.4815 45.2754 35.4514C45.2754 35.3912 45.2754 35.3912 45.3356 35.3912C45.3356 35.3912 45.3957 35.3912 45.3957 35.4514C45.3957 35.6018 45.3957 35.7824 45.3957 35.8727C45.3957 35.9329 45.3957 36.1134 45.3957 36.2639C45.3957 36.3241 45.3957 36.3241 45.3356 36.3241C45.3356 36.3241 45.2754 36.3241 45.2754 36.2639C45.2754 36.2037 45.2754 36.2037 45.2754 36.1736C45.2754 36.0833 45.2152 36.0833 45.1249 36.0833C45.0346 36.0833 44.9444 36.0833 44.5532 36.0833H44.1319C43.7106 36.0833 43.5601 36.1736 43.4698 36.3241C43.3795 36.4745 43.3795 36.5648 43.3795 36.6551C43.3795 36.8055 43.4397 36.9259 43.53 37.0463C43.6805 37.1968 43.9212 37.1968 44.192 37.1968H44.5231C44.9444 37.1968 45.0346 37.1968 45.0948 37.1968C45.1851 37.1968 45.2453 37.1366 45.2453 37.1065C45.2453 37.1065 45.2453 37.0463 45.2453 37.0162C45.2453 36.956 45.2453 36.956 45.3055 36.956C45.3055 36.956 45.3656 36.956 45.3656 37.0162C45.3656 37.1667 45.3656 37.3472 45.3656 37.3472C45.3656 37.4074 45.3656 37.5879 45.3656 37.6782C45.3656 37.7384 45.3657 37.7384 45.3055 37.7384C45.3055 37.7384 45.2453 37.7384 45.2453 37.6782C45.2453 37.618 45.2453 37.618 45.2453 37.588C45.2453 37.4977 45.1851 37.4977 45.0948 37.4977C45.0045 37.4977 44.9143 37.4977 44.5231 37.4977H44.2522C43.9212 37.4977 43.5902 37.4375 43.4096 37.2268C43.2291 37.0463 43.2291 36.8055 43.2291 36.5949C43.199 36.3843 43.199 36.1134 43.3795 35.9329ZM45.3957 39.1528C45.3356 39.1528 45.3356 39.213 45.3957 39.1528C45.3055 39.213 45.2453 39.213 45.0045 39.213C44.9444 39.213 44.9143 39.213 44.9143 39.1528C44.9143 39.1528 44.9143 39.0926 44.9744 39.0926C45.0346 39.0926 45.0647 39.0926 45.155 39.0023C45.2152 38.9421 45.3055 38.8518 45.3055 38.6713C45.3055 38.4907 45.2152 38.2801 45.0346 38.2801C44.8842 38.2801 44.7939 38.3403 44.6434 38.5509L44.5832 38.6412C44.4027 39.0324 44.1619 39.1227 43.9212 39.1227C43.7407 39.1227 43.53 39.0324 43.4096 38.8518C43.3194 38.7014 43.3194 38.5208 43.3194 38.3704C43.3194 38.2199 43.3194 38.0393 43.4096 37.8889C43.4096 37.8287 43.4698 37.8287 43.4999 37.8287C43.6504 37.8287 43.8309 37.8287 43.8911 37.8287C43.9513 37.8287 43.9814 37.8287 43.9814 37.8889C43.9814 37.9491 43.9212 37.9491 43.9212 37.9491C43.861 37.9491 43.8309 37.9491 43.7707 38.0092C43.5902 38.0694 43.4999 38.2801 43.4999 38.4305C43.4999 38.6713 43.6504 38.8218 43.8911 38.8218C44.0416 38.8218 44.1319 38.7616 44.2823 38.5509L44.3726 38.4005C44.5532 38.0694 44.7638 37.9792 45.0045 37.9792C45.3356 37.9792 45.5763 38.3102 45.5763 38.7014C45.4258 38.912 45.3957 39.0625 45.3957 39.1528ZM45.3957 33.5856C45.3957 33.6759 45.3957 33.7662 45.3957 33.8565V35C45.3957 35.0903 45.3957 35.1505 45.3957 35.1805C45.3957 35.2407 45.3957 35.2407 45.3957 35.2708C45.3957 35.2708 45.3957 35.2708 45.3356 35.2708C45.2754 35.2708 45.0647 35.2708 45.0045 35.2708C44.9444 35.2708 44.9444 35.2708 44.9444 35.2106C44.9444 35.2106 44.9444 35.1505 45.0045 35.1505H45.0647C45.155 35.1505 45.2152 35.0602 45.2152 34.8194V34.4884H44.0416C43.8008 34.4884 43.5601 34.4884 43.4096 34.4884C43.3194 34.4884 43.2592 34.5486 43.2592 34.5787C43.2592 34.6389 43.2592 34.669 43.2592 34.7292C43.2592 34.7893 43.2592 34.7893 43.199 34.7893C43.199 34.7893 43.1388 34.7893 43.1388 34.7292C43.1388 34.5486 43.1388 34.338 43.1388 34.2477C43.1388 34.1875 43.1388 34.0069 43.1388 33.8565C43.1388 33.7963 43.1388 33.7963 43.199 33.7963C43.199 33.7963 43.2592 33.7963 43.2592 33.8565C43.2592 33.9167 43.2592 33.9467 43.2592 33.9467C43.2592 34.0069 43.3194 34.037 43.4096 34.037C43.5601 34.037 43.7407 34.037 44.0416 34.037H45.1851V33.6157C45.1851 33.4653 45.1851 33.375 45.0948 33.3449C45.0346 33.2847 45.0045 33.2847 45.0045 33.2847C45.0045 33.2847 44.9444 33.2847 44.9444 33.2245C44.9444 33.2245 44.9444 33.1643 45.0045 33.1643C45.0647 33.1643 45.3356 33.2245 45.3356 33.2245C45.3957 33.2245 45.3957 33.2245 45.3957 33.2847C45.4258 33.4954 45.3957 33.4954 45.3957 33.5856ZM44.3425 23.1736C43.6805 23.1736 43.199 22.6921 43.199 22C43.199 21.1875 43.8309 20.8565 44.2823 20.8565C44.7638 20.8565 45.3656 21.1875 45.3656 22.0301C45.4258 22.7222 45.0045 23.1736 44.3425 23.1736ZM45.3356 17.7569C45.1851 17.8171 44.0416 18.2685 43.6203 18.4792C43.3795 18.5694 43.3494 18.6597 43.3494 18.7199C43.3494 18.7801 43.3494 18.8102 43.3494 18.8102C43.3494 18.8704 43.3494 18.8704 43.2893 18.8704C43.2893 18.8704 43.2291 18.8704 43.2291 18.7199C43.2291 18.6296 43.2291 18.4491 43.2291 18.2083C43.2291 18.1481 43.2291 18.118 43.2291 18.118C43.2291 18.118 43.2893 18.118 43.2893 18.1782L43.3494 18.2384L43.9212 17.9977C43.9212 17.9977 43.9212 17.9977 43.9212 17.9375V17.2755C43.9212 17.2755 43.9212 17.2754 43.9212 17.2153L43.53 17.0648C43.4698 17.0046 43.3795 17.0046 43.3494 17.0046C43.2893 17.0046 43.2592 17.0648 43.2592 17.0949V17.1551C43.2592 17.2153 43.2592 17.2153 43.199 17.2153C43.199 17.2153 43.1388 17.2153 43.1388 17.1551C43.1388 17.0648 43.1388 16.9143 43.1388 16.8241C43.1388 16.7639 43.1388 16.6435 43.1388 16.493C43.1388 16.4329 43.1388 16.4329 43.1388 16.4028C43.1388 16.2222 43.1388 16.0116 43.1388 15.8912C43.1388 15.7407 43.1388 15.6505 43.1388 15.5C43.1388 15.4398 43.1388 15.4097 43.1388 15.3495C43.1388 15.2893 43.1388 15.1991 43.1388 15.169C43.1388 15.1088 43.1388 15.1088 43.199 15.1088C43.199 15.1088 43.2592 15.1088 43.2592 15.169C43.2592 15.2292 43.2592 15.2592 43.2592 15.2592C43.2592 15.3194 43.3194 15.3495 43.4096 15.3495C43.5601 15.3495 43.7407 15.3495 44.0416 15.3495H44.5231C44.9444 15.3495 45.0346 15.3495 45.0948 15.3495C45.1851 15.3495 45.2453 15.2893 45.2453 15.1991C45.2453 15.1991 45.2453 15.1389 45.2453 15.1088C45.2453 15.0486 45.2453 15.0486 45.3055 15.0486C45.3055 15.0486 45.3656 15.0486 45.3656 15.1088C45.3656 15.2592 45.3656 15.4398 45.3656 15.5C45.3656 15.5602 45.3656 15.7708 45.3656 15.9213C45.3656 15.9815 45.3657 15.9815 45.3055 15.9815C45.3055 15.9815 45.2453 15.9815 45.2453 15.9213C45.2453 15.8611 45.2453 15.831 45.2453 15.831C45.2453 15.7407 45.1851 15.7407 45.0948 15.7407C45.0045 15.7407 44.9143 15.7407 44.5231 15.7407H44.0416C43.6504 15.7407 43.53 15.7407 43.4698 15.8009C43.4096 15.8611 43.4096 15.9514 43.4096 16.1921C43.4096 16.3426 43.4096 16.4329 43.4999 16.5231C43.5601 16.5833 43.5902 16.5833 43.6805 16.5833C43.7407 16.5833 43.7407 16.5833 43.7407 16.6435L43.6805 16.7037C43.6203 16.7037 43.4397 16.7037 43.3494 16.6435C43.4096 16.7338 43.4397 16.794 43.5902 16.8843L45.3356 17.6065C45.4258 17.6667 45.4258 17.6667 45.4258 17.6967C45.4258 17.7268 45.4258 17.7268 45.3356 17.7569Z" fill="#038DD2"/>
<path d="M35.7361 40.537C36.0069 40.4467 36.368 40.0555 36.0069 39.4537L31.4329 29.3727L30.3796 26.9953L25.8055 16.0717C25.5648 15.4398 25.3241 15.4398 25.0532 16.0717L20.6898 27.2361C20.5995 27.4166 20.6898 27.5069 20.8403 27.5069H28.9653L29.6273 28.9815H20.2986C20.0579 28.9815 19.9074 29.1319 19.8171 29.3125L16.8379 36.625C16.4166 37.6782 16.1157 38.6713 16.1157 39.3935C16.1157 40.206 17.169 40.5671 18.0116 40.5671H18.493C18.7639 40.5671 18.9143 40.6273 18.9745 40.7477H35.375C35.4051 40.6273 35.5555 40.537 35.7361 40.537Z" fill="#038DD2"/>
<path d="M80.6341 0.96527C82.5902 1.53703 83.6735 1.77777 83.9142 1.77777C84.3957 1.77777 84.8772 1.62731 85.2985 1.38656C85.7198 1.11573 86.0207 0.72453 86.2013 0.152771H87.2846L87.7661 11.6481H86.5925C85.9304 9.3611 85.0277 7.52545 83.9443 6.14119C81.8679 3.52314 79.0091 2.19906 75.4883 2.19906C71.9374 2.19906 68.9883 3.61342 66.7013 6.44212C64.4142 9.30092 63.2707 13.1829 63.2707 18.118C63.2707 22.6921 64.4443 26.3333 66.8216 29.0417C69.1989 31.75 72.2383 33.1343 75.9096 33.1343C78.5577 33.1343 80.9952 32.5023 83.2221 31.2384C84.5161 30.5162 85.9304 29.4329 87.4651 28.0185L88.4281 28.9815C87.2846 30.3958 85.9003 31.6898 84.1851 32.743C81.3263 34.6088 78.1966 35.5116 74.8864 35.5116C69.3795 35.5116 65.0462 33.7662 61.8263 30.2454C58.8471 27.0255 57.3726 22.9329 57.3726 18.088C57.3726 13.0926 58.9374 8.90971 62.067 5.53934C65.4073 1.98842 69.6804 0.212955 74.9767 0.212955C76.7823 0.0925849 78.6781 0.393511 80.6341 0.96527Z" fill="#2D2D2B"/>
<path d="M86.9238 33.6759C88.1576 33.5856 88.9701 33.3449 89.4516 33.0139C90.1738 32.5023 90.7456 31.4491 91.197 29.8241L97.5766 6.9236C97.7572 6.17128 97.9678 5.53934 98.0581 5.02776C98.1484 4.54628 98.2086 4.12498 98.2086 3.73378C98.2086 2.92128 97.9377 2.34952 97.3058 2.0185C96.6738 1.68749 95.6507 1.53702 94.1761 1.50693V0.664337H119.965L118.34 8.5486L117.287 8.45832C117.347 7.94674 117.378 7.46526 117.378 6.98378C117.378 6.5023 117.438 6.35184 117.438 6.47221C117.498 4.75693 116.866 3.67359 115.632 3.10183C114.398 2.59026 111.84 2.28934 107.989 2.28934C106.243 2.28934 105.1 2.37961 104.648 2.53008C104.167 2.68054 103.896 3.04165 103.685 3.61341L100.315 15.6805C104.889 15.5301 107.628 15.2592 108.53 14.8379C109.433 14.4166 110.426 13.0324 111.479 10.6551L112.442 10.8958L108.891 22.9028L107.898 22.662C108.079 21.669 108.169 21.037 108.169 20.7963C108.229 20.5555 108.229 20.3148 108.229 20.0741C108.229 18.9907 107.838 18.2685 107.056 17.9375C106.303 17.6065 104.829 17.456 102.783 17.456H99.8035L96.5836 29.0116C96.4933 29.3426 96.403 29.6736 96.3428 30.0046C96.2826 30.2754 96.2525 30.6366 96.2525 30.9676C96.2525 31.4792 96.403 31.9305 96.6738 32.2014C97.1854 32.6829 98.2386 32.9236 99.7734 32.9236C104.438 32.9236 107.748 32.4421 109.764 31.4491C111.78 30.456 113.766 28.5602 115.753 25.7014L116.595 26.1227L113.375 34.4884H87.0141V33.6759H86.9238Z" fill="#0680C8"/>
<path d="M122.915 33.7963C123.577 33.7963 124.058 33.6458 124.239 33.375C124.419 33.1042 124.57 32.713 124.57 32.2315V3.13193C124.57 2.65045 124.479 2.28934 124.239 1.98841C123.998 1.71758 123.516 1.56712 122.824 1.56712V0.814804H133.658V1.56712C132.664 1.56712 132.183 1.83795 132.183 2.40971C132.183 2.65045 132.273 2.89119 132.424 3.13193L142.866 23.6551L153.699 3.13193C153.759 2.98147 153.79 2.89119 153.85 2.74073C153.91 2.59027 153.94 2.49999 153.94 2.34952C153.94 2.16897 153.85 1.95832 153.609 1.83795C153.368 1.68749 152.947 1.59721 152.375 1.59721V0.844894H163.84V1.59721C163.118 1.59721 162.667 1.74767 162.426 2.01851C162.185 2.28934 162.095 2.68055 162.095 3.16203V32.2315C162.095 32.713 162.185 33.0741 162.426 33.375C162.667 33.6759 163.148 33.7963 163.84 33.7963V34.5486H154.873V33.8264C155.595 33.8264 156.046 33.6759 156.287 33.4051C156.528 33.1343 156.618 32.743 156.618 32.2616V6.9236L156.438 6.77314L142.806 33.9167L129.174 6.77314L129.114 6.9236V32.2616C129.053 32.743 129.174 33.1042 129.354 33.4051C129.535 33.6759 129.986 33.8264 130.588 33.8264V34.5787H122.945V33.7963H122.915Z" fill="#2D2D2B"/>
<path d="M170.009 2.8611H175.336V23.4444C175.336 24.8287 175.576 26.0625 176.058 27.2361C176.539 28.4097 177.201 29.4629 178.044 30.3657C178.887 31.2685 179.94 31.9907 181.174 32.5023C182.407 33.0139 183.732 33.2546 185.266 33.2546C186.801 33.2546 188.155 33.0139 189.359 32.5023C190.563 31.9907 191.586 31.2685 192.458 30.3657C193.301 29.4629 193.993 28.4097 194.414 27.2361C194.896 26.0625 195.076 24.7685 195.076 23.4444V2.8611H197.394V23.4444C197.394 25.0694 197.123 26.5741 196.581 28.0486C196.069 29.4629 195.257 30.7569 194.113 31.8102C192.97 32.8634 191.556 33.7662 189.78 34.368C188.035 35 185.928 35.331 183.461 35.331C181.264 35.331 179.338 35 177.653 34.368C175.998 33.7361 174.553 32.8935 173.41 31.8102C172.266 30.7268 171.424 29.4329 170.852 28.0185C170.28 26.544 170.009 25.0393 170.009 23.3542V2.8611Z" fill="#2D2D2B"/>
<path d="M58.0649 39.7546C58.0649 39.7546 56.0186 39.7546 56.0186 41.8009V55.0417C56.0186 55.0417 56.0186 57.0879 58.0649 57.0879H196.852C196.852 57.0879 198.898 57.088 198.898 55.0417V41.8009C198.898 41.8009 198.898 39.7546 196.852 39.7546H58.0649Z" fill="#0680C8"/>
<path d="M66.7317 51.5509C66.4007 51.7014 65.6785 51.9421 64.7757 51.9421C62.3984 51.9421 60.9238 50.3773 60.9238 47.9097C60.9238 45.2616 62.6391 43.6667 64.9562 43.6667C65.859 43.6667 66.491 43.8472 66.7618 44.0579L66.491 45.2315C66.0998 45.081 65.6484 44.9606 65.0164 44.9606C63.4817 44.9606 62.3984 45.9537 62.3984 47.9097C62.3984 49.6551 63.3613 50.7986 65.0164 50.7986C65.5882 50.7986 66.1599 50.7083 66.5511 50.5278L66.7317 51.5509Z" fill="white"/>
<path d="M68.5375 49.2639C68.5976 50.3171 69.35 50.7384 70.1925 50.7384C70.8245 50.7384 71.2759 50.6481 71.7273 50.4977L71.9078 51.4907C71.4263 51.6713 70.7643 51.8819 70.012 51.8819C68.2666 51.8819 67.2134 50.7384 67.2134 48.993C67.2134 47.368 68.1162 45.8634 69.8615 45.8634C71.6069 45.8634 72.1787 47.4282 72.1787 48.662C72.1787 48.9329 72.1787 49.1435 72.1185 49.294H68.5375V49.2639ZM70.8847 48.2708C70.8847 47.7593 70.7041 46.8565 69.7412 46.8565C68.8986 46.8565 68.5675 47.669 68.4472 48.2708H70.8847Z" fill="white"/>
<path d="M73.1715 47.6991C73.1715 47.037 73.1715 46.4653 73.1113 45.9838H74.2849L74.3451 46.8264H74.4053C74.646 46.3449 75.2479 45.8333 76.1507 45.8333C77.1136 45.8333 78.1067 46.4954 78.1067 48.3009V51.7315H76.7224V48.4514C76.7224 47.6389 76.4516 46.9769 75.6692 46.9769C75.0974 46.9769 74.7062 47.3981 74.5859 47.8194C74.5257 47.9097 74.5257 48.0903 74.5257 48.3009V51.7315H73.1414V47.6991H73.1715Z" fill="white"/>
<path d="M81.0259 44.4792V45.9537H82.35V47.037H81.0259V49.5949C81.0259 50.3171 81.2065 50.6782 81.7481 50.6782C81.9889 50.6782 82.1393 50.6782 82.2597 50.618V51.7014C82.0792 51.7917 81.688 51.8518 81.2667 51.8518C80.7551 51.8518 80.3037 51.6713 80.093 51.3704C79.8222 51.0393 79.6717 50.5278 79.6717 49.7454V47.037H78.9194V45.9537H79.6717V44.8704L81.0259 44.4792Z" fill="white"/>
<path d="M83.2526 47.8495C83.2526 47.037 83.2526 46.4653 83.1924 45.9838H84.366L84.4262 47.0671H84.4864C84.7572 46.2546 85.3891 45.8333 86.0211 45.8333C86.1715 45.8333 86.2016 45.8333 86.3521 45.8935V47.2778C86.2016 47.2176 86.1114 47.2176 85.9308 47.2176C85.2688 47.2176 84.8475 47.6389 84.697 48.3009C84.697 48.4514 84.6368 48.5718 84.6368 48.7222V51.7014H83.2526V47.8495Z" fill="white"/>
<path d="M92.19 48.7824C92.19 50.919 90.7757 51.8819 89.3914 51.8819C87.8567 51.8819 86.6831 50.7384 86.6831 48.9028C86.6831 47.0069 87.8567 45.8032 89.4817 45.8032C91.0766 45.8634 92.19 47.037 92.19 48.7824ZM88.0975 48.9028C88.0975 50.0463 88.609 50.8588 89.4215 50.8588C90.1738 50.8588 90.7456 50.0463 90.7456 48.8727C90.7456 47.9699 90.3544 46.9167 89.4215 46.9167C88.4887 46.8866 88.0975 47.8796 88.0975 48.9028Z" fill="white"/>
<path d="M99.683 48.2407H96.8242V50.618H100.014V51.7917H95.4399V43.7569H99.8034V44.9306H96.8242V47.0069H99.683V48.2407Z" fill="white"/>
<path d="M101.068 47.6991C101.068 47.037 101.068 46.4653 101.007 45.9838H102.181L102.241 46.8264H102.301C102.542 46.3449 103.054 45.8333 103.956 45.8333C104.679 45.8333 105.25 46.2546 105.491 46.9167C105.672 46.5856 105.912 46.3449 106.153 46.1944C106.484 45.9537 106.815 45.8634 107.297 45.8634C108.199 45.8634 109.102 46.5255 109.102 48.3912V51.8218H107.778V48.6319C107.778 47.669 107.447 47.0972 106.815 47.0972C106.334 47.0972 106.003 47.4884 105.852 47.8495C105.792 48 105.792 48.1806 105.792 48.331V51.7917H104.468V48.4213C104.468 47.6088 104.197 47.037 103.505 47.037C102.993 47.037 102.662 47.4583 102.512 47.8495C102.452 48 102.452 48.1806 102.452 48.331V51.7616H101.128V47.669H101.068V47.6991Z" fill="white"/>
<path d="M110.426 47.8796C110.426 47.1273 110.426 46.4954 110.366 45.9236H111.539L111.6 46.8264C111.991 46.1644 112.653 45.8333 113.465 45.8333C114.699 45.8333 115.752 46.9769 115.752 48.7824C115.752 50.8588 114.519 51.8819 113.285 51.8819C112.623 51.8819 112.051 51.6111 111.75 51.1296V54.1088H110.366V47.8796H110.426ZM111.81 49.3241C111.81 49.4745 111.81 49.5949 111.87 49.7454C112.021 50.3773 112.502 50.7384 113.104 50.7384C113.947 50.7384 114.488 49.9861 114.488 48.8426C114.488 47.8495 114.007 46.9769 113.164 46.9769C112.593 46.9769 112.081 47.3981 111.931 48.0602C111.931 48.2106 111.87 48.3009 111.87 48.4514V49.294H111.81V49.3241Z" fill="white"/>
<path d="M116.836 47.8495C116.836 47.037 116.836 46.4653 116.776 45.9838H117.949L118.01 47.0671H118.07C118.341 46.2546 118.973 45.8333 119.605 45.8333C119.755 45.8333 119.785 45.8333 119.936 45.8935V47.2778C119.785 47.2176 119.695 47.2176 119.514 47.2176C118.852 47.2176 118.431 47.6389 118.281 48.3009C118.281 48.4514 118.22 48.5718 118.22 48.7222V51.7014H116.836V47.8495Z" fill="white"/>
<path d="M121.591 49.2639C121.651 50.3171 122.403 50.7384 123.246 50.7384C123.878 50.7384 124.329 50.6481 124.78 50.4977L124.961 51.4907C124.48 51.6713 123.818 51.8819 123.065 51.8819C121.32 51.8819 120.267 50.7384 120.267 48.993C120.267 47.368 121.169 45.8634 122.915 45.8634C124.66 45.8634 125.232 47.4282 125.232 48.662C125.232 48.9329 125.232 49.1435 125.172 49.294H121.591V49.2639ZM124.028 48.2708C124.028 47.7593 123.848 46.8565 122.885 46.8565C122.042 46.8565 121.711 47.669 121.591 48.2708H124.028Z" fill="white"/>
<path d="M126.255 50.4074C126.526 50.588 127.158 50.8287 127.639 50.8287C128.271 50.8287 128.482 50.5579 128.482 50.1667C128.482 49.7755 128.241 49.5949 127.579 49.3241C126.526 48.9329 126.044 48.331 126.044 47.669C126.044 46.6759 126.857 45.8634 128.091 45.8634C128.723 45.8634 129.234 46.0139 129.565 46.1944L129.294 47.1875C129.054 47.037 128.632 46.8565 128.151 46.8565C127.669 46.8565 127.399 47.0972 127.399 47.4884C127.399 47.8796 127.639 48 128.362 48.3009C129.355 48.6921 129.776 49.2037 129.836 50.0463C129.836 51.0995 129.084 51.8518 127.609 51.8518C126.947 51.8518 126.375 51.7014 125.954 51.4305L126.255 50.4074Z" fill="white"/>
<path d="M135.072 50.3773C135.072 50.8889 135.072 51.4306 135.162 51.7616H133.928L133.838 51.0995H133.778C133.447 51.581 132.875 51.8519 132.153 51.8519C131.069 51.8519 130.438 51.0093 130.438 50.1366C130.438 48.662 131.671 47.9398 133.657 47.9398V47.8495C133.657 47.4583 133.507 46.8565 132.574 46.8565C132.063 46.8565 131.491 47.037 131.1 47.2778L130.829 46.3148C131.22 46.0741 131.912 45.8032 132.785 45.8032C134.53 45.8032 135.012 46.9769 135.012 48.2708V50.3472H135.072V50.3773ZM133.748 48.9329C132.785 48.9329 131.852 49.1134 131.852 50.0162C131.852 50.588 132.183 50.8287 132.604 50.8287C133.176 50.8287 133.567 50.4375 133.687 50.0162C133.748 49.9259 133.748 49.8357 133.748 49.6852V48.9329Z" fill="white"/>
<path d="M140.068 43.7569V48.4213C140.068 49.9861 140.699 50.7083 141.602 50.7083C142.595 50.7083 143.167 49.9861 143.167 48.4213V43.7569H144.551V48.331C144.551 50.7986 143.378 51.8819 141.572 51.8819C139.827 51.8819 138.713 50.8287 138.713 48.331V43.7269H140.098V43.7569H140.068Z" fill="white"/>
<path d="M145.965 47.6991C145.965 47.037 145.965 46.4653 145.905 45.9838H147.079L147.139 46.8264H147.199C147.44 46.3449 148.042 45.8333 148.945 45.8333C149.908 45.8333 150.901 46.4954 150.901 48.3009V51.7315H149.516V48.4514C149.516 47.6389 149.246 46.9769 148.463 46.9769C147.891 46.9769 147.5 47.3981 147.38 47.8194C147.32 47.9097 147.32 48.0903 147.32 48.3009V51.7315H145.935V47.6991H145.965Z" fill="white"/>
<path d="M153.699 44.3889C153.699 44.8102 153.429 45.2014 152.947 45.2014C152.466 45.2014 152.195 44.8102 152.195 44.3889C152.195 43.9676 152.526 43.5764 152.947 43.5764C153.429 43.5764 153.699 43.9074 153.699 44.3889ZM152.285 51.7315V45.9236H153.669V51.7315H152.285Z" fill="white"/>
<path d="M155.896 45.9838L156.799 48.9329C156.949 49.4444 157.07 49.8958 157.19 50.3472H157.25C157.341 49.8657 157.491 49.4444 157.641 48.9329L158.484 45.9838H159.898L157.822 51.7917H156.498L154.452 45.9838H155.896Z" fill="white"/>
<path d="M161.403 49.2639C161.463 50.3171 162.216 50.7384 163.058 50.7384C163.69 50.7384 164.142 50.6481 164.593 50.4977L164.774 51.4907C164.292 51.6713 163.63 51.8819 162.878 51.8819C161.132 51.8819 160.079 50.7384 160.079 48.993C160.079 47.368 160.982 45.8634 162.727 45.8634C164.473 45.8634 165.044 47.4282 165.044 48.662C165.044 48.9329 165.044 49.1435 164.984 49.294H161.403V49.2639ZM163.781 48.2708C163.781 47.7593 163.6 46.8565 162.637 46.8565C161.794 46.8565 161.463 47.669 161.343 48.2708H163.781Z" fill="white"/>
<path d="M166.097 47.8495C166.097 47.037 166.097 46.4653 166.037 45.9838H167.211L167.271 47.0671H167.331C167.602 46.2546 168.234 45.8333 168.866 45.8333C169.016 45.8333 169.046 45.8333 169.197 45.8935V47.2778C169.046 47.2176 168.956 47.2176 168.776 47.2176C168.113 47.2176 167.692 47.6389 167.542 48.3009C167.542 48.4514 167.482 48.5718 167.482 48.7222V51.7014H166.097V47.8495Z" fill="white"/>
<path d="M169.919 50.4074C170.19 50.588 170.822 50.8287 171.303 50.8287C171.935 50.8287 172.146 50.5579 172.146 50.1667C172.146 49.7755 171.905 49.5949 171.243 49.3241C170.19 48.9329 169.708 48.331 169.708 47.669C169.708 46.6759 170.521 45.8634 171.755 45.8634C172.387 45.8634 172.898 46.0139 173.229 46.1944L172.958 47.1875C172.718 47.037 172.296 46.8565 171.815 46.8565C171.333 46.8565 171.063 47.0972 171.063 47.4884C171.063 47.8796 171.303 48 172.026 48.3009C173.019 48.6921 173.44 49.2037 173.5 50.0463C173.5 51.0995 172.748 51.8518 171.273 51.8518C170.611 51.8518 170.039 51.7014 169.618 51.4305L169.919 50.4074Z" fill="white"/>
<path d="M175.998 44.3889C175.998 44.8102 175.727 45.2014 175.245 45.2014C174.764 45.2014 174.493 44.8102 174.493 44.3889C174.493 43.9676 174.824 43.5764 175.245 43.5764C175.697 43.5764 175.998 43.9074 175.998 44.3889ZM174.523 51.7315V45.9236H175.908V51.7315H174.523Z" fill="white"/>
<path d="M182.317 43.3356V50.1366C182.317 50.7685 182.317 51.3704 182.377 51.7616H181.144L181.083 50.8588C180.752 51.5208 180.09 51.912 179.338 51.912C178.014 51.912 177.021 50.7384 177.021 48.963C177.021 47.0069 178.165 45.8634 179.458 45.8634C180.211 45.8634 180.752 46.1944 180.993 46.6157V43.3356H182.317ZM180.933 48.3611C180.933 48.2708 180.933 48.0903 180.873 47.9699C180.722 47.3981 180.301 46.9769 179.699 46.9769C178.796 46.9769 178.315 47.7893 178.315 48.8727C178.315 49.956 178.796 50.7384 179.699 50.7384C180.271 50.7384 180.752 50.3171 180.873 49.6852C180.933 49.5347 180.933 49.4143 180.933 49.2639V48.3611Z" fill="white"/>
<path d="M187.884 50.3773C187.884 50.8889 187.884 51.4306 187.975 51.7616H186.741L186.65 51.0995H186.59C186.259 51.581 185.688 51.8519 184.965 51.8519C183.882 51.8519 183.25 51.0093 183.25 50.1366C183.25 48.662 184.484 47.9398 186.47 47.9398V47.8495C186.47 47.4583 186.319 46.8565 185.387 46.8565C184.875 46.8565 184.303 47.037 183.912 47.2778L183.641 46.3148C184.032 46.0741 184.725 45.8032 185.597 45.8032C187.343 45.8032 187.824 46.9769 187.824 48.2708V50.3472H187.884V50.3773ZM186.53 48.9329C185.567 48.9329 184.634 49.1134 184.634 50.0162C184.634 50.588 184.965 50.8287 185.387 50.8287C185.958 50.8287 186.35 50.4375 186.47 50.0162C186.53 49.9259 186.53 49.8357 186.53 49.6852V48.9329Z" fill="white"/>
<path d="M194.234 43.3356V50.1366C194.234 50.7685 194.234 51.3704 194.294 51.7616H193.06L193 50.8588C192.669 51.5208 192.007 51.912 191.255 51.912C189.931 51.912 188.938 50.7384 188.938 48.963C188.938 47.0069 190.081 45.8634 191.375 45.8634C192.127 45.8634 192.669 46.1944 192.91 46.6157V43.3356H194.234ZM192.91 48.3611C192.91 48.2708 192.91 48.0903 192.85 47.9699C192.699 47.3981 192.278 46.9769 191.676 46.9769C190.773 46.9769 190.292 47.7893 190.292 48.8727C190.292 49.956 190.773 50.7384 191.676 50.7384C192.248 50.7384 192.729 50.3171 192.85 49.6852C192.91 49.5347 192.91 49.4143 192.91 49.2639V48.3611Z" fill="white"/>
</svg>
